Coordinates
version=1
nRows=12
nColumns=33
inDegrees=yes

Units are S.I. units (second, meters, Newtons, ...)
Angles are in degrees.

endheader
time	ground_thorax_rot_x	ground_thorax_rot_y	ground_thorax_rot_z	ground_thorax_tx	ground_thorax_ty	ground_thorax_tz	clav_prot_r	clav_elev_r	scapula_abduction_r	scapula_elevation_r	scapula_upward_rot_r	scapula_winging_r	shoulder_elv_r	plane_of_elev_r	axial_rot_r	elbow_flexion_r	pro_sup_r	wrist_flex_r	wrist_dev_r	clav_prot_l	clav_elev_l	scapula_abduction_l	scapula_elevation_l	scapula_upward_rot_l	scapula_winging_l	shoulder_elv_l	plane_of_elev_l	axial_rot_l	elbow_flexion_l	pro_sup_l	wrist_flex_l	wrist_dev_l
      6.37000000	    -39.38128400	    -12.61248247	     12.14442011	    -87.99785182	    836.48003668	    -44.33227958	     22.25526268	    -45.00000000	     36.23946085	    -45.00000000	    -38.24984819	  -4057.48310107	  -1004.52799472	     21.46644126	   -155.43943627	   1799.57926897	   -200.59344273	     12.28042832	     15.17944480	      3.57760980	     29.33367534	    -30.27864022	    -45.00000000	    -45.00000000	  -2802.39382076	  -1343.06540034	     18.79420580	   -179.99999979	    360.18732964	   -176.97117134	     11.99080835	    -17.57657903
      6.38000000	    -39.42061977	    -11.98491417	     11.40992119	    -90.48819632	    839.37568792	    -44.70712922	     21.96015645	    -45.00000000	     36.42033212	    -45.00000000	    -37.59427309	  -4057.62027593	  -1004.46349411	     21.46141620	   -155.72926083	   1799.47870363	   -201.08168687	     12.28908498	     15.18421325	      3.74805210	     29.38914055	    -30.46548382	    -45.00000000	    -45.00000000	  -2802.33905270	  -1342.88718096	     18.72909014	   -179.99999979	    359.95985852	   -176.75263047	     11.78996427	    -17.74336343
      6.39000000	    -39.38784125	    -11.79655447	     11.22499387	    -92.90344033	    842.26405586	    -45.06057009	     22.00615039	    -45.00000000	     36.38990597	    -45.00000000	    -37.60613713	  -4057.88667638	  -1004.31315554	     21.62958758	   -155.85512837	   1799.45348473	   -201.55135229	     12.38830762	     15.06152128	      3.62531946	     29.46631989	    -30.49465356	    -45.00000000	    -45.00000000	  -2802.01106661	  -1342.80252425	     18.83719053	   -179.99999979	    359.88488423	   -176.35359711	     11.75030503	    -17.87635024
      6.40000000	    -39.36274690	    -11.57817126	     11.01148394	    -95.21491646	    845.09377041	    -45.39168730	     21.94843370	    -45.00000000	     36.42164571	    -45.00000000	    -37.52506127	  -4058.11459340	  -1004.20391557	     21.70810635	   -156.05190772	   1799.40202324	   -201.97123554	     12.50052097	     14.96854968	      3.50823051	     29.56557674	    -30.57563448	    -45.00000000	    -45.00000000	  -2801.72677221	  -1342.73289074	     18.88773639	   -179.99999979	    359.78007463	   -175.76587310	     11.64184544	    -18.06309111
      6.41000000	    -39.38646329	    -10.49655138	      9.81437490	    -97.41265954	    847.84325525	    -45.70086713	     21.23449334	    -45.00000000	     36.66506764	    -45.00000000	    -35.89620438	  -4058.03778100	  -1004.15528646	     21.53550123	   -156.79677465	   1799.51340859	   -202.28677443	     12.53140592	     14.96622827	      3.53009396	     29.59793936	    -30.96009482	    -45.00000000	    -45.00000000	  -2801.71239368	  -1342.67359411	     18.92579494	   -179.99999979	    359.33662635	   -175.35270392	     11.20548678	    -18.39921154
      6.42000000	    -39.32454020	    -11.05596283	     10.44237387	    -99.46739026	    850.46015000	    -45.98577946	     21.75784833	    -45.00000000	     36.59550373	    -45.00000000	    -37.14362636	  -4058.52466307	  -1004.00266077	     21.86662248	   -156.50313589	   1799.30842707	   -202.56271165	     12.65592087	     14.87137014	      3.39017468	     29.73543227	    -30.64825716	    -45.00000000	    -45.00000000	  -2801.36772322	  -1342.49687240	     18.91094587	   -179.99999979	    359.48827694	   -174.51777359	     11.30496450	    -18.44624899
      6.43000000	    -39.34941523	    -10.53551908	      9.91492733	   -101.37711876	    852.93499226	    -46.24612402	     21.57271119	    -45.00000000	     36.62424337	    -45.00000000	    -36.78150626	  -4058.62470452	  -1003.92419388	     21.92649077	   -156.76826916	   1799.24662860	   -202.84362915	     12.79030431	     14.79567320	      3.44862187	     29.76557308	    -30.82290457	    -45.00000000	    -45.00000000	  -2801.20510999	  -1342.36654297	     18.98793547	   -179.99999979	    359.25359177	   -173.66069711	     11.02414140	    -18.66125008
      6.44000000	    -39.38977823	     -9.79478733	      9.09633292	   -103.13994163	    855.25531339	    -46.47804703	     21.13353283	    -45.00000000	     36.72493307	    -45.00000000	    -35.69357220	  -4058.58061931	  -1003.87847558	     21.81699324	   -157.29406864	   1799.25835649	   -203.09161827	     12.90443809	     14.79316897	      3.37240587	     29.79083523	    -31.02719765	    -45.00000000	    -45.00000000	  -2801.13497234	  -1342.31120708	     19.06460723	   -179.99999979	    358.93728945	   -173.05058370	     10.61617639	    -18.94970323
      6.45000000	    -39.47663607	     -9.12860932	      8.48435009	   -104.77159494	    857.43181799	    -46.67831290	     20.88466115	    -45.00000000	     36.52873416	    -45.00000000	    -34.94848370	  -4058.54597308	  -1003.90904206	     21.84601622	   -157.59166703	   1799.43388170	   -203.31676600	     13.17037430	     14.61768337	      3.19369755	     29.85103983	    -31.20699240	    -45.00000000	    -45.00000000	  -2800.91309942	  -1342.11629556	     19.39427889	   -179.99999979	    358.89108759	   -172.50770477	     10.30199225	    -19.13431371
      6.46000000	    -39.46466827	     -8.83104527	      8.14862539	   -106.28718034	    859.46647965	    -46.84396419	     20.81027114	    -45.00000000	     36.48576729	    -45.00000000	    -34.73220326	  -4058.70221177	  -1003.82884744	     22.00920012	   -157.69608548	   1799.29735966	   -203.45886150	     13.29812295	     14.64362409	      3.35506534	     29.86265722	    -31.13045555	    -45.00000000	    -45.00000000	  -2800.91695147	  -1341.93751111	     19.39201775	   -179.99999979	    358.67480409	   -171.88898753	     10.06306348	    -19.27779785
      6.47000000	    -39.43353558	     -8.90801107	      8.19367310	   -107.69145418	    861.34517633	    -46.97177363	     20.80072407	    -45.00000000	     36.73969168	    -45.00000000	    -34.94434330	  -4058.86719945	  -1003.75082253	     21.92874642	   -157.82920776	   1799.08300274	   -203.57703431	     13.39871212	     14.74507658	      3.30939253	     29.87547384	    -31.13945553	    -45.00000000	    -45.00000000	  -2800.85910800	  -1342.00476466	     19.17783691	   -179.99999979	    358.54781726	   -170.97526367	      9.84889919	    -19.45509315
      6.48000000	    -39.47271998	     -8.52055738	      7.84399242	   -108.99177536	    863.06304335	    -47.05723145	     20.67121083	    -45.00000000	     36.56522106	    -45.00000000	    -34.58476452	  -4058.84010466	  -1003.71871016	     21.97843393	   -158.13532012	   1799.15733366	   -203.73149341	     13.65797774	     14.70287210	      3.10997413	     29.92520790	    -31.11920782	    -45.00000000	    -45.00000000	  -2800.76917240	  -1341.80858660	     19.37817686	   -179.99999979	    358.43192186	   -170.07372843	      9.47286486	    -19.67093506
